HIERARCHY
ROOT SpineBase
{
  OFFSET 0.000000 0.000000 0.000000
  CHANNELS 6 Xposition Yposition Zposition Zrotation Xrotation Yrotation
  JOINT SpineMid
  {
    OFFSET 0.000000 27.474233 0.000000
    CHANNELS 3 Zrotation Xrotation Yrotation
    JOINT SpineShoulder
    {
      OFFSET -0.433615 20.635705 -0.475480
      CHANNELS 3 Zrotation Xrotation Yrotation
      JOINT Neck
      {
        OFFSET -0.293393 6.852953 -0.475294
        CHANNELS 3 Zrotation Xrotation Yrotation
        JOINT Head
        {
          OFFSET -5.043242 10.974955 5.048781
          CHANNELS 3 Zrotation Xrotation Yrotation
          End Site
          {
            OFFSET 0 0 0
          }
        }
      }
      JOINT ShoulderLeft
      {
        OFFSET -15.270063 8.777173 13.898150
        CHANNELS 3 Zrotation Xrotation Yrotation
        JOINT ElbowLeft
        {
          OFFSET -0.165512 -9.281253 -24.607295
          CHANNELS 3 Zrotation Xrotation Yrotation
          JOINT WristLeft
          {
            OFFSET -13.413293 1.281035 -13.726204
            CHANNELS 3 Zrotation Xrotation Yrotation
            JOINT HandLeft
            {
              OFFSET -6.411897 -5.100519 1.326975
              CHANNELS 3 Zrotation Xrotation Yrotation
              JOINT HandTipLeft
              {
                OFFSET -2.017648 0.100328 0.049833
                CHANNELS 3 Zrotation Xrotation Yrotation
                End Site
                {
                  OFFSET 0 0 0
                }
              }
              JOINT ThumbLeft
              {
                OFFSET -1.192837 3.361659 -0.840281
                CHANNELS 3 Zrotation Xrotation Yrotation
                End Site
                {
                  OFFSET 0 0 0
                }
              }
            }
          }
        }
      }
      JOINT ShoulderRight
      {
        OFFSET 2.908883 -3.585875 -13.221888
        CHANNELS 3 Zrotation Xrotation Yrotation
        JOINT ElbowRight
        {
          OFFSET -0.180417 -23.786891 -7.847514
          CHANNELS 3 Zrotation Xrotation Yrotation
          JOINT WristRight
          {
            OFFSET -4.035580 -20.367134 -0.246920
            CHANNELS 3 Zrotation Xrotation Yrotation
            JOINT HandRight
            {
              OFFSET 0.040389 -7.966054 1.843873
              CHANNELS 3 Zrotation Xrotation Yrotation
              JOINT HandTipRight
              {
                OFFSET -1.397273 -7.614894 0.339321
                CHANNELS 3 Zrotation Xrotation Yrotation
                End Site
                {
                  OFFSET 0 0 0
                }
              }
              JOINT ThumbRight
              {
                OFFSET -4.450613 2.584760 4.077133
                CHANNELS 3 Zrotation Xrotation Yrotation
                End Site
                {
                  OFFSET 0 0 0
                }
              }
            }
          }
        }
      }
    }
  }
  JOINT HipLeft
  {
    OFFSET -3.537381 2.401206 -0.296632
    CHANNELS 3 Zrotation Xrotation Yrotation
    JOINT KneeLeft
    {
      OFFSET 13.839754 -31.275043 -9.068668
      CHANNELS 3 Zrotation Xrotation Yrotation
      JOINT AnkleLeft
      {
        OFFSET 2.192725 -38.607314 -5.837561
        CHANNELS 3 Zrotation Xrotation Yrotation
        JOINT FootLeft
        {
          OFFSET 4.963576 7.300519 -7.455546
          CHANNELS 3 Zrotation Xrotation Yrotation
          End Site
          {
            OFFSET 0 0 0
          }
        }
      }
    }
  }
  JOINT HipRight
  {
    OFFSET 2.913307 0.875560 -5.797821
    CHANNELS 3 Zrotation Xrotation Yrotation
    JOINT KneeRight
    {
      OFFSET 4.964699 -32.347574 -8.080305
      CHANNELS 3 Zrotation Xrotation Yrotation
      JOINT AnkleRight
      {
        OFFSET 8.119438 -27.669831 -4.302852
        CHANNELS 3 Zrotation Xrotation Yrotation
        JOINT FootRight
        {
          OFFSET -3.226286 -6.304637 -1.756909
          CHANNELS 3 Zrotation Xrotation Yrotation
          End Site
          {
            OFFSET 0 0 0
          }
        }
      }
    }
  }
}
MOTION
Frames: 16
Frame Time: 0.033333
22.113283 73.107391 234.976689 -0.000000 0.000000 40.457758 -0.000000 0.000000 -40.457758 -0.000000 0.000000 0.000000 -0.000000 0.000000 0.000000 0.000000 0.000000 0.000000 -0.000000 0.000000 0.000000 -0.000000 0.000000 0.000000 -0.000000 0.000000 0.000000 -0.000000 0.000000 0.000000 0.000000 0.000000 0.000000 0.000000 0.000000 0.000000 -0.000000 0.000000 0.000000 -0.000000 0.000000 0.000000 -0.000000 0.000000 0.000000 -0.000000 0.000000 0.000000 0.000000 0.000000 0.000000 0.000000 0.000000 0.000000 -0.000000 0.000000 -40.457758 -0.000000 0.000000 0.000000 -0.000000 0.000000 0.000000 0.000000 0.000000 0.000000 -0.000000 0.000000 -40.457758 -0.000000 0.000000 0.000000 -0.000000 0.000000 0.000000 0.000000 0.000000 0.000000
22.181808 73.034422 235.064047 0.184682 -0.076130 39.548372 -0.093932 0.176295 -39.548105 -0.000000 0.000000 0.000000 -0.000000 0.000000 0.000000 0.000000 0.000000 0.000000 -0.000000 0.000000 0.000000 -0.000000 0.000000 0.000000 -0.000000 0.000000 0.000000 -0.000000 0.000000 0.000000 0.000000 0.000000 0.000000 0.000000 0.000000 0.000000 -0.000000 0.000000 0.000000 -0.000000 0.000000 0.000000 -0.000000 0.000000 0.000000 -0.000000 0.000000 0.000000 0.000000 0.000000 0.000000 0.000000 0.000000 0.000000 -0.093932 0.176295 -39.548105 -0.943273 0.020177 0.144005 6.670831 4.045207 2.938337 0.000000 0.000000 0.000000 -0.093932 0.176295 -39.548105 -0.000000 0.000000 0.000000 -0.000000 0.000000 0.000000 0.000000 0.000000 0.000000
22.236191 72.972488 235.135552 0.340092 -0.134038 38.773060 -0.181211 0.317477 -38.772160 -0.000000 0.000000 0.000000 -0.000000 0.000000 0.000000 0.000000 0.000000 0.000000 -0.000000 0.000000 0.000000 -0.000000 0.000000 0.000000 -0.000000 0.000000 0.000000 -0.000000 0.000000 0.000000 0.000000 0.000000 0.000000 0.000000 0.000000 0.000000 -0.000000 0.000000 0.000000 -0.000000 0.000000 0.000000 -0.000000 0.000000 0.000000 -0.000000 0.000000 0.000000 0.000000 0.000000 0.000000 0.000000 0.000000 0.000000 -0.675017 -0.546956 -39.254472 -1.759365 0.825361 0.741323 10.987065 6.583160 4.968883 0.000000 0.000000 0.000000 -0.181211 0.317477 -38.772160 -0.000000 0.000000 0.000000 -0.000000 0.000000 0.000000 0.000000 0.000000 0.000000
22.276431 72.921590 235.191204 0.466441 -0.173825 38.142606 -0.259494 0.424789 -38.140936 -0.000000 0.000000 0.000000 -0.000000 0.000000 0.000000 0.000000 0.000000 0.000000 -0.000000 0.000000 0.000000 -0.000000 0.000000 0.000000 -0.000000 0.000000 0.000000 -0.000000 0.000000 0.000000 0.000000 0.000000 0.000000 0.000000 0.000000 0.000000 -0.000000 0.000000 0.000000 -0.000000 0.000000 0.000000 -0.000000 0.000000 0.000000 0.365742 -0.895571 0.183533 0.000000 0.000000 0.000000 0.000000 0.000000 0.000000 -0.665449 -0.353705 -38.570084 -2.123622 0.359300 0.720546 13.522786 7.817399 6.564420 0.000000 0.000000 0.000000 -0.259494 0.424789 -38.140936 -0.000000 0.000000 0.000000 -0.000000 0.000000 0.000000 0.000000 0.000000 0.000000
22.302527 72.881729 235.231003 0.563895 -0.195568 37.666066 -0.326880 0.499375 -37.663679 -0.000000 0.000000 0.000000 -0.000000 0.000000 0.000000 0.000000 0.000000 0.000000 -0.000000 0.000000 0.000000 -0.000000 0.000000 0.000000 -0.000000 0.000000 0.000000 -0.000000 0.000000 0.000000 0.000000 0.000000 0.000000 0.000000 0.000000 0.000000 -0.000000 0.000000 0.000000 -0.000000 0.000000 0.000000 -0.000000 0.000000 0.000000 0.351890 -1.052054 0.211993 0.000000 0.000000 0.000000 0.000000 0.000000 0.000000 -0.326880 0.499375 -37.663679 -2.034584 -1.014266 0.232596 14.554281 7.776558 8.009895 0.000000 0.000000 0.000000 -0.012631 1.367288 -37.463848 0.278498 -0.880024 -0.202811 -0.000000 0.000000 0.000000 0.000000 0.000000 0.000000
22.314481 72.852903 235.254948 0.632581 -0.199319 37.350552 -0.381955 0.542217 -37.347644 -0.000000 0.000000 0.000000 -0.000000 0.000000 0.000000 0.000000 0.000000 0.000000 -0.000000 0.000000 0.000000 -0.000000 0.000000 0.000000 -0.000000 0.000000 0.000000 -0.000000 0.000000 0.000000 0.000000 0.000000 0.000000 0.000000 0.000000 0.000000 -0.000000 0.000000 0.000000 -0.000000 0.000000 0.000000 -0.000000 0.000000 0.000000 0.271387 -1.139452 0.223877 0.000000 0.000000 0.000000 0.000000 0.000000 0.000000 -0.381955 0.542217 -37.347644 -1.820914 -1.726182 0.150349 14.110362 6.205000 9.496591 0.000000 0.000000 0.000000 -0.042036 1.494868 -37.129299 0.304042 -0.964685 -0.221828 -0.000000 0.000000 0.000000 0.000000 0.000000 0.000000
22.307153 72.811477 235.222725 0.649533 -0.126870 37.160028 -0.441026 0.493447 -37.157410 -0.000000 0.000000 0.000000 -0.000000 0.000000 0.000000 0.000000 0.000000 0.000000 -0.000000 0.000000 0.000000 -0.000000 0.000000 0.000000 -0.000000 0.000000 0.000000 -0.000000 0.000000 0.000000 0.000000 0.000000 0.000000 0.000000 0.000000 0.000000 -0.000000 0.000000 0.000000 -0.000000 0.000000 0.000000 -0.000000 0.000000 0.000000 0.480237 -1.401208 0.284459 0.000000 0.000000 0.000000 0.000000 0.000000 0.000000 1.083943 2.971021 -35.848657 -0.827364 -6.155126 -1.473069 11.498727 -1.275192 13.970298 0.000000 0.000000 0.000000 -0.111573 1.430628 -36.942299 0.299958 -0.947022 -0.218164 -0.000000 0.000000 0.000000 0.000000 0.000000 0.000000
22.303678 72.799557 235.199174 0.675983 -0.074012 37.106990 -0.494465 0.466841 -37.104539 -0.000000 0.000000 0.000000 -0.000000 0.000000 0.000000 0.000000 0.000000 0.000000 -0.000000 0.000000 0.000000 -0.000000 0.000000 0.000000 -0.000000 0.000000 0.000000 -0.000000 0.000000 0.000000 0.000000 0.000000 0.000000 0.000000 0.000000 0.000000 -0.000000 0.000000 0.000000 -0.000000 0.000000 0.000000 -0.000000 0.000000 0.000000 -0.268659 -1.599095 0.277427 0.000000 0.000000 0.000000 0.000000 0.000000 0.000000 1.700099 3.892492 -35.317247 -0.770345 -8.113544 -2.074695 4.987368 -5.599497 10.342731 0.000000 0.000000 0.000000 -0.214543 1.378832 -36.890147 0.323592 -0.897419 -0.216366 -0.000000 0.000000 0.000000 0.000000 0.000000 0.000000
22.289547 72.809956 235.196749 0.681950 -0.042918 37.405499 -0.515653 0.448337 -37.403226 -0.000000 0.000000 0.000000 -0.000000 0.000000 0.000000 0.000000 0.000000 0.000000 -0.000000 0.000000 0.000000 -0.000000 0.000000 0.000000 -0.000000 0.000000 0.000000 -0.000000 0.000000 0.000000 0.000000 0.000000 0.000000 0.000000 0.000000 0.000000 -0.000000 0.000000 0.000000 -0.000000 0.000000 0.000000 -0.000000 0.000000 0.000000 -0.336125 -1.441149 0.244979 0.000000 0.000000 0.000000 0.000000 0.000000 0.000000 2.886272 6.155361 -34.495427 0.442147 -11.985357 -3.429394 3.207302 -20.133333 18.080620 0.000000 0.000000 0.000000 -0.275616 1.309953 -37.196654 0.329704 -0.831437 -0.207863 -0.000000 0.000000 0.000000 0.000000 0.000000 0.000000
22.208049 72.841001 235.223379 0.598787 -0.047536 37.558823 -0.445707 0.402683 -37.557008 -0.000000 0.000000 0.000000 0.234501 0.793033 0.253875 0.000000 0.000000 0.000000 -0.000000 0.000000 0.000000 -0.000000 0.000000 0.000000 -0.000000 0.000000 0.000000 -0.000000 0.000000 0.000000 0.000000 0.000000 0.000000 0.000000 0.000000 0.000000 -0.000000 0.000000 0.000000 -0.000000 0.000000 0.000000 -0.000000 0.000000 0.000000 -0.571312 -1.415669 0.226928 0.000000 0.000000 0.000000 0.000000 0.000000 0.000000 3.860332 7.225316 -34.129684 1.702722 -13.444294 -3.995787 6.389760 -22.283590 24.118949 0.000000 0.000000 0.000000 -0.137062 1.185453 -37.379355 0.229957 -0.809378 -0.180306 -0.000000 0.000000 0.000000 0.000000 0.000000 0.000000
22.146385 72.892535 235.267470 0.559162 -0.078574 37.747959 -0.394042 0.404438 -37.746185 -0.676927 -0.575867 -0.074999 1.171037 1.588442 0.293973 0.000000 0.000000 0.000000 0.676207 0.576712 0.068194 -0.000000 0.000000 0.000000 -0.000000 0.000000 0.000000 -0.000000 0.000000 0.000000 0.000000 0.000000 0.000000 0.000000 0.000000 0.000000 0.676207 0.576712 0.068194 -0.000000 0.000000 0.000000 -0.000000 0.000000 0.000000 -1.081061 -1.373135 0.190411 0.000000 0.000000 0.000000 0.000000 0.000000 0.000000 4.190078 7.546455 -34.169675 1.021733 -14.263219 -4.226492 0.760856 -35.314093 23.138413 0.000000 0.000000 0.000000 -0.023026 1.174509 -37.578768 0.175592 -0.836543 -0.171247 0.101056 -1.204339 0.591216 0.000000 0.000000 0.000000
22.125514 72.940549 235.318548 0.577414 -0.112745 38.387260 -0.382594 0.446926 -38.385199 -0.737625 -0.610694 -0.081229 1.492248 1.760706 0.235902 0.000000 0.000000 0.000000 0.736800 0.611689 0.073364 -0.000000 0.000000 0.000000 -0.000000 0.000000 0.000000 -0.000000 0.000000 0.000000 0.000000 0.000000 0.000000 0.000000 0.000000 0.000000 0.763523 -0.216612 0.071083 -0.025696 0.828334 0.002375 -0.000000 0.000000 0.000000 -0.150478 -0.882439 0.153970 0.000000 0.000000 0.000000 0.000000 0.000000 0.000000 3.794633 6.710945 -35.197929 -0.024324 -13.299948 -3.827124 -0.901970 -29.542330 17.994028 0.000000 0.000000 0.000000 -0.030990 1.162996 -38.228485 0.166902 -0.780065 -0.160518 -0.012943 -2.061642 1.063738 0.000000 0.000000 0.000000
22.134795 72.946166 235.371749 0.631071 -0.171046 39.377181 -1.129581 0.174520 -39.393792 -0.421435 0.106712 -0.053906 1.793185 1.892328 0.155527 0.000000 0.000000 0.000000 0.773367 0.646885 0.076976 -0.000000 0.000000 0.000000 -0.000000 0.000000 0.000000 -0.000000 0.000000 0.000000 0.000000 0.000000 0.000000 0.000000 0.000000 0.000000 0.806965 -0.216563 0.072686 -0.032504 0.863489 0.004408 -0.188265 -0.839318 -0.049129 0.229521 -0.821535 0.352810 0.000000 0.000000 0.000000 0.000000 0.000000 0.000000 3.634260 6.265747 -36.414296 -0.627644 -12.818974 -3.592528 -4.027096 -22.732903 11.394928 0.000000 0.000000 0.000000 -0.379309 0.532573 -39.374477 -0.000000 0.000000 0.000000 -0.056022 -2.717656 1.414178 0.000000 0.000000 0.000000
22.133792 72.915482 235.414514 0.681105 -0.172779 40.252247 -1.179592 0.205985 -40.268404 -0.477314 0.099479 -0.058141 2.108661 1.966084 0.053320 0.000000 0.000000 0.000000 0.828623 0.679215 0.081647 -0.000000 0.000000 0.000000 -0.000000 0.000000 0.000000 -0.000000 0.000000 0.000000 0.000000 0.000000 0.000000 0.000000 0.000000 0.000000 0.878851 -0.226205 0.072146 -0.155465 1.738432 -0.151573 0.048651 -1.679014 0.144506 -0.867317 -1.638824 0.425337 0.000000 0.000000 0.000000 0.000000 0.000000 0.000000 3.492356 5.829902 -37.494065 -0.893364 -12.348040 -3.363918 -11.465551 -12.085993 -0.621662 0.000000 0.000000 0.000000 -0.408202 0.571954 -40.249183 -0.000000 0.000000 0.000000 -0.080197 -3.188724 1.664509 0.000000 0.000000 0.000000
22.111031 72.850544 235.478783 0.701775 -0.163750 40.312634 -1.219963 0.206212 -40.329103 -0.536268 0.088083 -0.063100 2.434788 2.019363 -0.054945 0.000000 0.000000 0.000000 0.897098 0.708767 0.087024 -0.000000 0.000000 0.000000 -0.000000 0.000000 0.000000 -0.000000 0.000000 0.000000 0.000000 0.000000 0.000000 0.000000 0.000000 0.000000 0.954724 -0.212355 0.075180 -0.158134 1.817230 -0.161793 0.101565 -1.997651 0.170040 -0.560773 -1.841299 0.517096 0.000000 0.000000 0.000000 0.000000 0.000000 0.000000 3.604496 6.131943 -37.410372 -1.124854 -12.896068 -3.555562 -5.485389 -23.604574 9.967936 0.000000 0.000000 0.000000 -0.429203 0.578871 -40.309463 -0.000000 0.000000 0.000000 -0.085199 -3.451483 1.802243 0.000000 0.000000 0.000000
22.043383 72.794578 235.561098 0.672292 -0.152382 40.058529 -1.241884 0.183110 -40.076539 -0.595644 0.075032 -0.069250 2.760774 2.051426 -0.158918 0.000000 0.000000 0.000000 0.990529 0.737750 0.093916 -0.000000 0.000000 0.000000 -0.000000 0.000000 0.000000 -0.000000 0.000000 0.000000 0.000000 0.000000 0.000000 0.000000 0.000000 0.000000 1.057611 -0.177370 0.078854 -0.151669 1.923761 -0.181372 0.186038 -1.815049 0.219602 -0.346910 -2.337130 0.544565 0.000000 0.000000 0.000000 0.000000 0.000000 0.000000 4.250934 7.096057 -36.692262 -0.455865 -14.479478 -4.127697 -7.342093 -30.208043 11.889545 0.000000 0.000000 0.000000 0.242816 1.276528 -39.925024 -0.038936 -0.980796 -0.141453 -0.036491 -3.333878 1.729253 0.000000 0.000000 0.000000
